# xmcd
#
# Track frame offsets:
#	150
#	15077
#	39785
#	51085
#	73916
#	84430
#	108863
#	123679
#	148615
#	154725
#	170613
#
# Disc length: 2838 seconds
#
# Revision: 0
# Processed by: cddbd v1.5PL3 Copyright (c) Steve Scherf et al.
# Submitted via: EasyCDDAExtractor 4.6.9.1
#
DISCID=870b140b
DTITLE=Orange Goblin - Thieving From The House Of God
DYEAR=2004
DGENRE=Stoner Rock
TTITLE0=Some You Win, Some You Lose
TTITLE1=One Room, One Axe, One Outcome
TTITLE2=Hard Luck
TTITLE3=Black Egg
TTITLE4=You're Not The One (Who Can Save Rock n' Roll)
TTITLE5=If It Ain't Broke, Break It
TTITLE6=Lazy Mary
TTITLE7=Round Up The Horses
TTITLE8=Tosh Lines
TTITLE9=Just Got Paid
TTITLE10=Crown Of Locusts
EXTD=
EXTT0=
EXTT1=
EXTT2=
EXTT3=
EXTT4=
EXTT5=
EXTT6=
EXTT7=
EXTT8=
EXTT9=
EXTT10=
PLAYORDER=
